<svg width="19" height="19" viewBox="0 0 19 19" fill="none" xmlns="http://www.w3.org/2000/svg">
<g clip-path="url(#clip0_774_1936)">
<path d="M17.0336 0H4.26754C3.36251 0 2.62618 0.73633 2.62618 1.64136V4.41344H1.31494C0.589864 4.41344 0 5.0033 0 5.72838V12.9467C0 13.6717 0.589864 14.2616 1.31494 14.2616H2.62618V17.0336C2.62618 17.9387 3.36251 18.675 4.26754 18.675H17.0336C17.9387 18.675 18.675 17.9387 18.675 17.0336V1.64136C18.675 0.73633 17.9387 0 17.0336 0ZM1.09424 12.9467V5.72838C1.09424 5.6067 1.19327 5.50768 1.31494 5.50768H15.1716C15.2933 5.50768 15.3923 5.6067 15.3923 5.72838V12.9467C15.3923 13.0683 15.2933 13.1674 15.1716 13.1674H1.31494C1.19327 13.1674 1.09424 13.0683 1.09424 12.9467ZM17.5808 17.0336C17.5808 17.3353 17.3353 17.5808 17.0336 17.5808H4.26754C3.96591 17.5808 3.72042 17.3353 3.72042 17.0336V14.2616H15.1716C15.8967 14.2616 16.4866 13.6717 16.4866 12.9467V5.72838C16.4866 5.0033 15.8967 4.41344 15.1716 4.41344H3.72042V1.64136C3.72042 1.33973 3.96591 1.09424 4.26754 1.09424H17.0336C17.3353 1.09424 17.5808 1.33973 17.5808 1.64136V17.0336Z" fill="#293243"/>
<path d="M3.28175 10.2495H3.82887C4.83448 10.2495 5.6526 9.43144 5.6526 8.42576C5.6526 7.42015 4.83448 6.60205 3.82887 6.60205H2.73462C2.43242 6.60205 2.1875 6.84698 2.1875 7.14918V11.5261C2.1875 11.8284 2.43242 12.0732 2.73462 12.0732C3.03682 12.0732 3.28175 11.8284 3.28175 11.5261V10.2495ZM3.28175 7.6963H3.82887C4.23108 7.6963 4.55836 8.02354 4.55836 8.42576C4.55836 8.82797 4.23108 9.15529 3.82887 9.15529H3.28175V7.6963Z" fill="#293243"/>
<path d="M7.29517 12.073H8.20706C9.31322 12.073 10.2132 11.1731 10.2132 10.0669V8.60791C10.2132 7.50168 9.31322 6.60181 8.20706 6.60181H7.29517C6.99296 6.60181 6.74805 6.84673 6.74805 7.14893V11.5259C6.74805 11.8281 6.99296 12.073 7.29517 12.073ZM7.84226 7.69606H8.20706C8.70983 7.69606 9.11891 8.10507 9.11891 8.60791V10.0669C9.11891 10.5697 8.70983 10.9787 8.20706 10.9787H7.84226V7.69606Z" fill="#293243"/>
<path d="M11.8538 12.0732C12.156 12.0732 12.4009 11.8284 12.4009 11.5261V9.88481H13.4951C13.7973 9.88481 14.0423 9.63986 14.0423 9.33769C14.0423 9.03544 13.7973 8.79056 13.4951 8.79056H12.4009V7.6963H13.7505C14.0527 7.6963 14.2976 7.45135 14.2976 7.14918C14.2976 6.84698 14.0527 6.60205 13.7505 6.60205H11.8538C11.5516 6.60205 11.3066 6.84698 11.3066 7.14918V11.5261C11.3066 11.8284 11.5516 12.0732 11.8538 12.0732Z" fill="#293243"/>
</g>
<defs>
<clipPath id="clip0_774_1936">
<rect width="19" height="19" fill="white"/>
</clipPath>
</defs>
</svg>
