<svg width="19" height="23" viewBox="0 0 19 23" fill="none" xmlns="http://www.w3.org/2000/svg">
<g clip-path="url(#clip0_774_1931)">
<path d="M11.444 16.2677V20.1425C11.444 20.4673 11.3148 20.7788 11.0849 21.0084C10.8549 21.2381 10.5431 21.3671 10.2179 21.3671H2.861C2.53581 21.3671 2.22393 21.2381 1.99399 21.0084C1.76404 20.7788 1.63486 20.4673 1.63486 20.1425V2.99741C1.63486 2.67261 1.76404 2.36111 1.99399 2.13145C2.22393 1.90178 2.53581 1.77276 2.861 1.77276H9.60969L11.1056 0.28032C10.8189 0.187063 10.5193 0.139669 10.2179 0.139893H2.861C2.10222 0.139893 1.37451 0.440952 0.837968 0.976839C0.301426 1.51273 0 2.23955 0 2.99741V20.1425C0 21.7198 1.28173 23 2.861 23H10.2179C10.9766 23 11.7044 22.6989 12.2409 22.163C12.7774 21.6272 13.0789 20.9003 13.0789 20.1425V15.0316L12.6996 15.4121C12.3384 15.7734 11.9125 16.0636 11.444 16.2677ZM4.08714 18.9178C4.08714 18.7013 4.17327 18.4936 4.32656 18.3405C4.47986 18.1874 4.68778 18.1014 4.90457 18.1014H8.17429C8.39108 18.1014 8.599 18.1874 8.7523 18.3405C8.9056 18.4936 8.99172 18.7013 8.99172 18.9178C8.99172 19.1344 8.9056 19.342 8.7523 19.4951C8.599 19.6482 8.39108 19.7343 8.17429 19.7343H4.90457C4.68778 19.7343 4.47986 19.6482 4.32656 19.4951C4.17327 19.342 4.08714 19.1344 4.08714 18.9178Z" fill="#293243"/>
<path d="M10.8089 3.44202C10.8394 3.32527 10.8921 3.21581 10.9639 3.11991C11.0357 3.02401 11.1252 2.94353 11.2274 2.88309C11.3296 2.82264 11.4424 2.78341 11.5594 2.76764C11.6764 2.75186 11.7952 2.75985 11.9092 2.79115C13.5743 3.23612 15.0935 4.12768 16.3103 5.374C17.5271 6.62031 18.3976 8.17633 18.832 9.88179C18.8626 9.99853 18.8704 10.1203 18.855 10.2401C18.8396 10.3599 18.8013 10.4755 18.7423 10.5801C18.6833 10.6848 18.6047 10.7765 18.5111 10.8501C18.4174 10.9236 18.3106 10.9775 18.1966 11.0088C18.1207 11.0292 18.0426 11.0396 17.9642 11.0398C17.7662 11.0398 17.5738 10.9728 17.4169 10.8493C17.26 10.7258 17.1472 10.5526 17.0963 10.3567C16.742 8.96449 16.0315 7.69423 15.0383 6.67688C14.045 5.65953 12.8048 4.9319 11.4455 4.56898C11.3314 4.53788 11.2244 4.48404 11.1307 4.41055C11.0369 4.33706 10.9582 4.24535 10.8991 4.14068C10.84 4.03601 10.8016 3.92043 10.7861 3.80055C10.7706 3.68067 10.7784 3.55883 10.8089 3.44202ZM10.5473 8.24885C12.0956 8.67204 13.0903 9.6909 13.5035 11.2767C13.5545 11.4726 13.6672 11.6457 13.8241 11.7693C13.9811 11.8928 14.1735 11.9598 14.3714 11.9598C14.4498 11.9596 14.5279 11.9491 14.6038 11.9287C14.7178 11.8975 14.8246 11.8436 14.9183 11.77C15.0119 11.6965 15.0905 11.6048 15.1495 11.5001C15.2085 11.3954 15.2468 11.2799 15.2622 11.1601C15.2776 11.0403 15.2698 10.9185 15.2393 10.8018C14.6644 8.59844 13.1622 7.05979 11.011 6.47101C10.897 6.43983 10.7782 6.43194 10.6612 6.4478C10.5443 6.46367 10.4315 6.50297 10.3294 6.56346C10.2273 6.62395 10.1378 6.70445 10.0661 6.80037C9.99434 6.89628 9.94174 7.00573 9.91129 7.12247C9.88085 7.2392 9.87315 7.36093 9.88863 7.48072C9.90412 7.6005 9.94249 7.71598 10.0016 7.82058C10.0606 7.92517 10.1392 8.01683 10.2329 8.09031C10.3265 8.16379 10.4334 8.21767 10.5473 8.24885Z" fill="#FF7635"/>
<ellipse cx="10.3297" cy="11.5004" rx="1.34727" ry="1.38026" fill="#FF7635"/>
</g>
<defs>
<clipPath id="clip0_774_1931">
<rect width="19" height="23" fill="white"/>
</clipPath>
</defs>
</svg>
