<svg width="203" height="25" viewBox="0 0 203 25" fill="none" xmlns="http://www.w3.org/2000/svg">
<g clip-path="url(#clip0_512_944)">
<path fill-rule="evenodd" clip-rule="evenodd" d="M31.4741 14.3347C31.2361 14.5012 30.952 14.5883 30.6621 14.5837H24.9484C24.932 14.5837 24.9162 14.5772 24.9046 14.5655C24.893 14.5538 24.8864 14.538 24.8864 14.5215V1.10305C24.8864 1.08654 24.893 1.0707 24.9046 1.05902C24.9162 1.04734 24.932 1.04078 24.9484 1.04078H30.6633C30.9533 1.0362 31.2373 1.12333 31.4753 1.28985C32.9273 2.33779 35.2563 4.75342 35.2563 7.81195C35.2563 10.8705 32.926 13.2867 31.4741 14.3347ZM0.0619836 25C0.0455446 25 0.0297788 24.9934 0.0181546 24.9818C0.0065304 24.9701 0 24.9542 0 24.9377V0.0622665C0 0.0457524 0.0065304 0.0299147 0.0181546 0.0182374C0.0297788 0.0065602 0.0455446 0 0.0619836 0L5.66221 0C5.67425 1.83386e-05 5.68603 0.00356152 5.6961 0.0101964C5.70617 0.0168313 5.7141 0.0262704 5.71892 0.0373599L12.9022 16.5317C12.9069 16.5431 12.9149 16.5527 12.925 16.5595C12.9352 16.5664 12.9472 16.57 12.9594 16.57C12.9716 16.57 12.9836 16.5664 12.9937 16.5595C13.0039 16.5527 13.0118 16.5431 13.0166 16.5317L19.6851 0.0389165C19.6897 0.0275359 19.6975 0.0177696 19.7076 0.0108454C19.7177 0.00392121 19.7296 0.00014798 19.7418 0L32.661 0C35.2532 0 40.4378 1.56258 40.4378 7.81257C40.4378 13.7883 36.337 15.0816 34.007 15.1083C34.0003 15.1091 33.994 15.1121 33.9893 15.117C33.9846 15.1219 33.9817 15.1283 33.9811 15.1351C33.9806 15.1418 33.9824 15.1486 33.9863 15.1542C33.9902 15.1597 33.9958 15.1638 34.0024 15.1656L36.2648 15.6199C36.2731 15.6216 36.2811 15.625 36.288 15.6299C36.295 15.6348 36.3009 15.6412 36.3054 15.6485L41.9363 24.9066C41.9417 24.916 41.9445 24.9267 41.9446 24.9376C41.9446 24.9484 41.9418 24.9591 41.9364 24.9686C41.9311 24.978 41.9234 24.9859 41.914 24.9914C41.9047 24.9969 41.8941 24.9999 41.8833 25H36.3274C36.3164 25.0001 36.3056 24.9973 36.2961 24.9918C36.2865 24.9863 36.2786 24.9784 36.2731 24.9689L31.1245 15.6569C31.119 15.6474 31.1111 15.6394 31.1015 15.634C31.092 15.6285 31.0812 15.6257 31.0702 15.6258H24.9484C24.932 15.6258 24.9162 15.6323 24.9046 15.644C24.893 15.6557 24.8864 15.6715 24.8864 15.688V24.9377C24.8864 24.9542 24.8799 24.9701 24.8683 24.9818C24.8567 24.9934 24.8409 25 24.8244 25H19.7629C19.7464 25 19.7307 24.9934 19.719 24.9818C19.7074 24.9701 19.7009 24.9542 19.7009 24.9377V4.49004C19.7009 4.47553 19.6959 4.46147 19.6867 4.45027C19.6775 4.43908 19.6647 4.43146 19.6506 4.42873C19.6364 4.426 19.6217 4.42833 19.609 4.43531C19.5964 4.4423 19.5866 4.45351 19.5813 4.467L11.4214 24.9608C11.4168 24.9723 11.4089 24.9823 11.3986 24.9893C11.3883 24.9963 11.3762 25 11.3638 25H9.37503C9.36241 25 9.35011 24.9961 9.33975 24.9888C9.3294 24.9816 9.32149 24.9714 9.31707 24.9595L1.67542 4.48817C1.67028 4.47457 1.66057 4.46321 1.64797 4.45605C1.63537 4.44889 1.62068 4.44639 1.60643 4.44898C1.59218 4.45156 1.57929 4.45908 1.56998 4.47022C1.56068 4.48136 1.55555 4.49542 1.55548 4.50996V24.9377C1.55548 24.9542 1.54895 24.9701 1.53732 24.9818C1.5257 24.9934 1.50993 25 1.4935 25H0.0619836Z" fill="#293243"/>
<path d="M51.9452 18.539C50.8475 18.539 49.8212 18.3129 48.8665 17.8609C47.9117 17.4088 47.1242 16.7225 46.504 15.8017C45.8841 14.8812 45.5742 13.8199 45.5742 12.6177C45.5742 10.9087 46.1527 9.48356 47.3098 8.34221C48.4668 7.20087 49.9294 6.63009 51.6976 6.62988C53.2232 6.62988 54.458 7.08744 55.402 8.00255C56.346 8.91766 56.8399 10.1967 56.8837 11.8397H56.2087C56.1428 10.4283 55.7367 9.32571 54.9904 8.53181C54.2442 7.73792 53.3442 7.34097 52.2904 7.34097C51.0392 7.34097 50.0681 7.80413 49.3772 8.73044C48.6863 9.65676 48.3405 10.9027 48.3399 12.4683C48.3399 14.1003 48.7132 15.3932 49.4597 16.3469C50.2061 17.3006 51.2105 17.778 52.4727 17.779C53.5043 17.779 54.3852 17.4262 55.1153 16.7205C55.8455 16.0148 56.2874 14.9673 56.4409 13.5779H57.1159C56.9402 15.2541 56.3832 16.5001 55.4448 17.3157C54.5064 18.1314 53.3398 18.5392 51.9452 18.539Z" fill="#293243"/>
<path d="M65.3652 18.3735L63.867 15.1484H59.3394L57.9398 18.3735H57.2812L62.451 6.68018H62.6664L68.0996 18.3735H65.3652ZM59.6029 14.5528H63.5872L61.5457 10.1204L59.6029 14.5528Z" fill="#293243"/>
<path d="M73.4818 6.79541C75.227 6.79541 76.5414 7.07935 77.4249 7.64722C78.3084 8.21509 78.7502 9.00068 78.7504 10.004C78.7504 10.9963 78.3196 11.804 77.458 12.4271C76.5965 13.0502 75.2711 13.3615 73.4818 13.3611H72.2635V18.3736H69.7773V6.79541H73.4818ZM73.3994 12.7661C74.2878 12.7661 74.9628 12.5263 75.4244 12.0467C75.8859 11.567 76.1165 10.8972 76.1161 10.0373C76.1161 9.19942 75.8911 8.54883 75.4411 8.08557C74.9911 7.62231 74.3106 7.39078 73.3997 7.39099H72.2635V12.7661H73.3994Z" fill="#293243"/>
<path d="M80.5117 18.3732V6.79541H82.9963V18.3732H80.5117Z" fill="#293243"/>
<path d="M94.9349 6.79541V7.39099H91.1477V18.3732H88.6616V7.39099H84.875V6.79541H94.9349Z" fill="#293243"/>
<path d="M102.342 18.3735L100.844 15.1484H96.316L94.9164 18.3735H94.2578L99.4276 6.68018H99.6417L105.075 18.3735H102.342ZM96.5794 14.5528H100.564L98.5217 10.1201L96.5794 14.5528Z" fill="#293243"/>
<path d="M109.242 17.777H114V18.3726H106.756V6.79541H109.242L109.242 17.777Z" fill="#293243"/>
<path d="M122 2H123V23H122V2Z" fill="#293243"/>
<path d="M135.237 8.53857C134.725 8.53857 134.264 8.62744 133.853 8.80518C133.447 8.97868 133.1 9.23258 132.812 9.56689C132.528 9.89697 132.311 10.2969 132.158 10.7666C132.006 11.2363 131.93 11.7653 131.93 12.3535C131.93 13.1322 132.05 13.8092 132.292 14.3848C132.537 14.9561 132.901 15.3983 133.383 15.7114C133.87 16.0246 134.477 16.1812 135.205 16.1812C135.62 16.1812 136.009 16.1473 136.373 16.0796C136.741 16.0076 137.099 15.9188 137.446 15.813V16.7524C137.107 16.8794 136.752 16.9725 136.379 17.0317C136.007 17.0952 135.565 17.127 135.053 17.127C134.109 17.127 133.32 16.9323 132.685 16.543C132.055 16.1494 131.581 15.5951 131.263 14.8799C130.95 14.1647 130.793 13.3205 130.793 12.3472C130.793 11.6447 130.891 11.0036 131.085 10.4238C131.284 9.83984 131.572 9.33626 131.949 8.91309C132.33 8.48991 132.795 8.16406 133.345 7.93555C133.9 7.7028 134.534 7.58643 135.25 7.58643C135.719 7.58643 136.172 7.63298 136.608 7.72607C137.044 7.81917 137.437 7.95247 137.789 8.12598L137.357 9.04004C137.061 8.90462 136.735 8.78825 136.379 8.69092C136.028 8.58936 135.647 8.53857 135.237 8.53857ZM141.902 9.92871C142.731 9.92871 143.347 10.1149 143.749 10.4873C144.151 10.8597 144.352 11.4543 144.352 12.271V17H143.584L143.381 15.9717H143.33C143.135 16.2256 142.932 16.4393 142.721 16.6128C142.509 16.7821 142.264 16.9111 141.984 17C141.709 17.0846 141.371 17.127 140.969 17.127C140.546 17.127 140.169 17.0529 139.839 16.9048C139.513 16.7567 139.255 16.5324 139.064 16.2319C138.878 15.9315 138.785 15.5506 138.785 15.0894C138.785 14.3953 139.06 13.8621 139.61 13.4897C140.16 13.1174 140.998 12.9142 142.124 12.8804L143.324 12.8296V12.4043C143.324 11.8034 143.195 11.3823 142.937 11.1411C142.678 10.8999 142.314 10.7793 141.845 10.7793C141.481 10.7793 141.134 10.8322 140.804 10.938C140.474 11.0438 140.16 11.1686 139.864 11.3125L139.541 10.5127C139.854 10.3519 140.213 10.2144 140.62 10.1001C141.026 9.98584 141.453 9.92871 141.902 9.92871ZM143.311 13.5723L142.251 13.6167C141.383 13.6506 140.772 13.7923 140.417 14.042C140.061 14.2917 139.883 14.645 139.883 15.1021C139.883 15.4998 140.004 15.7939 140.245 15.9844C140.486 16.1748 140.806 16.27 141.204 16.27C141.821 16.27 142.327 16.0986 142.721 15.7559C143.114 15.4131 143.311 14.8989 143.311 14.2134V13.5723ZM149.792 9.91602C150.66 9.91602 151.351 10.2144 151.868 10.811C152.384 11.4077 152.642 12.3049 152.642 13.5024C152.642 14.2938 152.524 14.9582 152.287 15.4956C152.05 16.033 151.715 16.4393 151.284 16.7144C150.856 16.9894 150.351 17.127 149.767 17.127C149.398 17.127 149.075 17.0783 148.795 16.981C148.516 16.8836 148.277 16.7524 148.078 16.5874C147.879 16.4224 147.714 16.2425 147.583 16.0479H147.507C147.52 16.2129 147.534 16.4118 147.551 16.6445C147.572 16.8773 147.583 17.0804 147.583 17.2539V20.1104H146.523V10.043H147.393L147.532 11.0713H147.583C147.718 10.8597 147.883 10.6672 148.078 10.4937C148.273 10.3159 148.51 10.1763 148.789 10.0747C149.073 9.96891 149.407 9.91602 149.792 9.91602ZM149.608 10.8047C149.125 10.8047 148.736 10.8978 148.44 11.084C148.148 11.2702 147.934 11.5495 147.799 11.9219C147.663 12.29 147.591 12.7534 147.583 13.312V13.5151C147.583 14.1034 147.646 14.6006 147.773 15.0068C147.905 15.4131 148.118 15.722 148.415 15.9336C148.715 16.1452 149.117 16.251 149.621 16.251C150.052 16.251 150.412 16.1346 150.7 15.9019C150.987 15.6691 151.201 15.3454 151.341 14.9307C151.485 14.5117 151.557 14.0314 151.557 13.4897C151.557 12.6688 151.396 12.0171 151.074 11.5347C150.757 11.048 150.268 10.8047 149.608 10.8047ZM155.537 10.043V17H154.483V10.043H155.537ZM155.022 7.44043C155.196 7.44043 155.344 7.49756 155.467 7.61182C155.594 7.72184 155.657 7.89535 155.657 8.13232C155.657 8.36507 155.594 8.53857 155.467 8.65283C155.344 8.76709 155.196 8.82422 155.022 8.82422C154.84 8.82422 154.688 8.76709 154.565 8.65283C154.447 8.53857 154.388 8.36507 154.388 8.13232C154.388 7.89535 154.447 7.72184 154.565 7.61182C154.688 7.49756 154.84 7.44043 155.022 7.44043ZM160.018 16.2637C160.192 16.2637 160.369 16.2489 160.551 16.2192C160.733 16.1896 160.881 16.1536 160.996 16.1113V16.9302C160.873 16.9852 160.701 17.0317 160.481 17.0698C160.266 17.1079 160.054 17.127 159.847 17.127C159.479 17.127 159.144 17.0635 158.844 16.9365C158.543 16.8053 158.302 16.5853 158.12 16.2764C157.942 15.9674 157.854 15.54 157.854 14.9941V10.8682H156.863V10.354L157.86 9.94141L158.279 8.43066H158.914V10.043H160.951V10.8682H158.914V14.9624C158.914 15.3983 159.013 15.7241 159.212 15.9399C159.415 16.1558 159.684 16.2637 160.018 16.2637ZM165.007 9.92871C165.837 9.92871 166.452 10.1149 166.854 10.4873C167.257 10.8597 167.458 11.4543 167.458 12.271V17H166.689L166.486 15.9717H166.436C166.241 16.2256 166.038 16.4393 165.826 16.6128C165.615 16.7821 165.369 16.9111 165.09 17C164.815 17.0846 164.476 17.127 164.074 17.127C163.651 17.127 163.274 17.0529 162.944 16.9048C162.618 16.7567 162.36 16.5324 162.17 16.2319C161.984 15.9315 161.891 15.5506 161.891 15.0894C161.891 14.3953 162.166 13.8621 162.716 13.4897C163.266 13.1174 164.104 12.9142 165.229 12.8804L166.429 12.8296V12.4043C166.429 11.8034 166.3 11.3823 166.042 11.1411C165.784 10.8999 165.42 10.7793 164.95 10.7793C164.586 10.7793 164.239 10.8322 163.909 10.938C163.579 11.0438 163.266 11.1686 162.97 11.3125L162.646 10.5127C162.959 10.3519 163.319 10.2144 163.725 10.1001C164.131 9.98584 164.559 9.92871 165.007 9.92871ZM166.417 13.5723L165.356 13.6167C164.489 13.6506 163.877 13.7923 163.522 14.042C163.167 14.2917 162.989 14.645 162.989 15.1021C162.989 15.4998 163.109 15.7939 163.351 15.9844C163.592 16.1748 163.911 16.27 164.309 16.27C164.927 16.27 165.433 16.0986 165.826 15.7559C166.22 15.4131 166.417 14.8989 166.417 14.2134V13.5723ZM170.688 17H169.628V7.12305H170.688V17ZM174.123 15.4893L174.205 15.6353C174.129 15.9442 174.032 16.2743 173.913 16.6255C173.799 16.9767 173.672 17.328 173.532 17.6792C173.397 18.0347 173.259 18.3669 173.12 18.6758H172.333C172.421 18.3372 172.508 17.9797 172.593 17.603C172.677 17.2306 172.754 16.8625 172.821 16.4985C172.893 16.1304 172.95 15.7939 172.993 15.4893H174.123ZM179.816 17V7.71973H180.896V16.0352H185.015V17H179.816ZM186.608 17V7.71973H187.688V16.0352H191.807V17H186.608ZM197.368 8.53857C196.856 8.53857 196.394 8.62744 195.984 8.80518C195.578 8.97868 195.231 9.23258 194.943 9.56689C194.659 9.89697 194.441 10.2969 194.289 10.7666C194.137 11.2363 194.061 11.7653 194.061 12.3535C194.061 13.1322 194.181 13.8092 194.422 14.3848C194.668 14.9561 195.032 15.3983 195.514 15.7114C196.001 16.0246 196.608 16.1812 197.336 16.1812C197.751 16.1812 198.14 16.1473 198.504 16.0796C198.872 16.0076 199.23 15.9188 199.577 15.813V16.7524C199.238 16.8794 198.883 16.9725 198.51 17.0317C198.138 17.0952 197.696 17.127 197.184 17.127C196.24 17.127 195.451 16.9323 194.816 16.543C194.185 16.1494 193.711 15.5951 193.394 14.8799C193.081 14.1647 192.924 13.3205 192.924 12.3472C192.924 11.6447 193.022 11.0036 193.216 10.4238C193.415 9.83984 193.703 9.33626 194.08 8.91309C194.46 8.48991 194.926 8.16406 195.476 7.93555C196.03 7.7028 196.665 7.58643 197.38 7.58643C197.85 7.58643 198.303 7.63298 198.739 7.72607C199.175 7.81917 199.568 7.95247 199.919 8.12598L199.488 9.04004C199.192 8.90462 198.866 8.78825 198.51 8.69092C198.159 8.58936 197.778 8.53857 197.368 8.53857ZM201.271 16.3398C201.271 16.0436 201.343 15.8341 201.487 15.7114C201.631 15.5845 201.807 15.521 202.014 15.521C202.23 15.521 202.412 15.5845 202.56 15.7114C202.708 15.8341 202.782 16.0436 202.782 16.3398C202.782 16.6318 202.708 16.8455 202.56 16.981C202.412 17.1121 202.23 17.1777 202.014 17.1777C201.807 17.1777 201.631 17.1121 201.487 16.981C201.343 16.8455 201.271 16.6318 201.271 16.3398Z" fill="#293243"/>
</g>
<defs>
<clipPath id="clip0_512_944">
<rect width="203" height="25" fill="white"/>
</clipPath>
</defs>
</svg>
