<?xml version="1.0" encoding="utf-8"?><svg viewBox="0 0 203 66" xmlns="http://www.w3.org/2000/svg" xmlns:xlink="http://www.w3.org/1999/xlink"><style>:root>svg{display:none}:root>svg:target{display:block}</style><svg fill="none" viewBox="0 0 61 66" id="address-icons" xmlns="http://www.w3.org/2000/svg"><g clip-path="url(#aclip0_1012_813)"><path d="M16.552 28.8a7.968 7.968 0 00-4.391 1.318 7.834 7.834 0 00-2.91 3.506 7.731 7.731 0 00-.45 4.515 7.787 7.787 0 002.162 4 7.932 7.932 0 004.047 2.139 7.988 7.988 0 004.566-.445 7.885 7.885 0 003.547-2.878 7.75 7.75 0 001.332-4.34c0-2.073-.832-4.06-2.314-5.526a7.95 7.95 0 00-5.59-2.288zm0 12.9a5.187 5.187 0 01-2.858-.856 5.1 5.1 0 01-1.895-2.283 5.033 5.033 0 01-.293-2.939 5.07 5.07 0 011.408-2.604 5.164 5.164 0 012.634-1.392 5.2 5.2 0 012.973.29 5.133 5.133 0 012.309 1.873c.565.836.867 1.82.867 2.825a5.057 5.057 0 01-1.512 3.588 5.175 5.175 0 01-3.633 1.485v.014z" fill="#fff"/><path d="M32.786 38.032a10.438 10.438 0 01-2.759-.45v.778c0 5.536-3.338 10.459-5.78 14.059l-.496.722c-2.372 3.519-5.517 7.46-7.214 9.41-1.627-1.95-4.841-5.891-7.213-9.41l-.47-.777c-2.44-3.6-5.792-8.523-5.792-14.059a13.206 13.206 0 011.761-6.538 13.395 13.395 0 014.783-4.84 13.603 13.603 0 0113.234-.35c.11-.937.352-1.855.718-2.726a16.366 16.366 0 00-15.698.878 16.1 16.1 0 00-5.562 5.848A15.88 15.88 0 00.303 38.36c0 6.368 3.614 11.7 6.262 15.586l.483.71a136.003 136.003 0 008.469 10.908l1.048 1.214 1.048-1.214a136.302 136.302 0 008.47-10.909l.482-.723c2.634-3.886 6.248-9.204 6.248-15.572-.014-.11-.027-.219-.027-.328z" fill="#fff"/><path d="M33.104 34.636c3.808 0 6.896-3.052 6.896-6.818C40 24.053 36.912 21 33.104 21c-3.81 0-6.897 3.053-6.897 6.818 0 3.766 3.088 6.818 6.897 6.818z" fill="#FF7635"/></g><path d="M41.5 21a1.5 1.5 0 100-3 1.5 1.5 0 000 3zM44.5 18a1.5 1.5 0 100-3 1.5 1.5 0 000 3zM47.5 15a1.5 1.5 0 100-3 1.5 1.5 0 000 3zM50.5 12a1.5 1.5 0 100-3 1.5 1.5 0 000 3zM53.5 9a1.5 1.5 0 100-3 1.5 1.5 0 000 3zM56.5 6a1.5 1.5 0 100-3 1.5 1.5 0 000 3zM59.5 3a1.5 1.5 0 100-3 1.5 1.5 0 000 3z" fill="#fff"/><defs><clipPath id="aclip0_1012_813"><path transform="matrix(-1 0 0 1 40 21)" fill="#fff" d="M0 0h40v45H0z"/></clipPath></defs></svg><svg fill="none" viewBox="0 0 19 19" id="icon-pdf" xmlns="http://www.w3.org/2000/svg"><g clip-path="url(#bclip0_774_1936)" fill="#293243"><path d="M17.034 0H4.268c-.905 0-1.642.736-1.642 1.641v2.772H1.315C.59 4.413 0 5.003 0 5.728v7.219c0 .725.59 1.315 1.315 1.315h1.311v2.772c0 .905.737 1.641 1.642 1.641h12.766c.905 0 1.641-.736 1.641-1.641V1.64C18.675.736 17.939 0 17.034 0zM1.094 12.947V5.728c0-.121.1-.22.22-.22h13.858c.121 0 .22.099.22.22v7.219c0 .121-.099.22-.22.22H1.315c-.122 0-.22-.099-.22-.22zm16.487 4.087a.548.548 0 01-.547.547H4.268a.548.548 0 01-.548-.547v-2.772h11.452c.725 0 1.315-.59 1.315-1.315V5.728c0-.725-.59-1.315-1.315-1.315H3.72V1.641c0-.301.246-.547.548-.547h12.766c.301 0 .547.246.547.547v15.393z"/><path d="M3.282 10.25h.547a1.826 1.826 0 001.824-1.824 1.826 1.826 0 00-1.824-1.824H2.735a.547.547 0 00-.547.547v4.377a.547.547 0 101.094 0V10.25zm0-2.554h.547a.73.73 0 010 1.46h-.547v-1.46zM7.295 12.073h.912c1.106 0 2.006-.9 2.006-2.006v-1.46c0-1.105-.9-2.005-2.006-2.005h-.912a.547.547 0 00-.547.547v4.377c0 .302.245.547.547.547zm.547-4.377h.365c.503 0 .912.41.912.912v1.459c0 .503-.41.912-.912.912h-.365V7.696zM11.854 12.073a.547.547 0 00.547-.547V9.885h1.094a.547.547 0 100-1.094h-1.094V7.696h1.35a.547.547 0 100-1.094h-1.897a.547.547 0 00-.547.547v4.377c0 .302.245.547.547.547z"/></g><defs><clipPath id="bclip0_774_1936"><path fill="#fff" d="M0 0h19v19H0z"/></clipPath></defs></svg><svg fill="none" viewBox="0 0 19 23" id="icon-phone" xmlns="http://www.w3.org/2000/svg"><g clip-path="url(#cclip0_774_1931)"><path d="M11.444 16.268v3.874a1.224 1.224 0 01-1.226 1.225H2.86a1.227 1.227 0 01-1.226-1.225V2.997A1.224 1.224 0 012.86 1.773H9.61L11.106.28a2.863 2.863 0 00-.888-.14H2.86A2.863 2.863 0 000 2.997v17.145A2.86 2.86 0 002.861 23h7.357a2.863 2.863 0 002.86-2.858v-5.11l-.378.38a4.079 4.079 0 01-1.256.856zm-7.357 2.65a.816.816 0 01.818-.817h3.27a.818.818 0 01.577 1.394.818.818 0 01-.578.24h-3.27a.818.818 0 01-.817-.817z" fill="#293243"/><path d="M10.809 3.442a.93.93 0 01.418-.559.884.884 0 01.682-.092 9.627 9.627 0 014.401 2.583 9.975 9.975 0 012.522 4.508.94.94 0 01-.09.698.914.914 0 01-.545.429.885.885 0 01-.78-.16.921.921 0 01-.32-.492 8.14 8.14 0 00-2.059-3.68 7.856 7.856 0 00-3.593-2.108.889.889 0 01-.546-.428.936.936 0 01-.09-.699zm-.262 4.807c1.549.423 2.543 1.442 2.957 3.028a.922.922 0 00.32.492.885.885 0 001.325-.269.936.936 0 00.09-.698c-.575-2.204-2.077-3.742-4.228-4.331a.878.878 0 00-.682.092.905.905 0 00-.418.56.942.942 0 00.09.698.912.912 0 00.546.428z" fill="#FF7635"/><ellipse cx="10.33" cy="11.5" rx="1.347" ry="1.38" fill="#FF7635"/></g><defs><clipPath id="cclip0_774_1931"><path fill="#fff" d="M0 0h19v23H0z"/></clipPath></defs></svg><svg fill="none" viewBox="0 0 203 25" id="logo" xmlns="http://www.w3.org/2000/svg"><g clip-path="url(#dclip0_512_944)" fill="#293243"><path fill-rule="evenodd" clip-rule="evenodd" d="M31.474 14.335a1.378 1.378 0 01-.812.249h-5.714a.062.062 0 01-.062-.063V1.104a.063.063 0 01.062-.062h5.715c.29-.005.574.082.812.249 1.452 1.048 3.781 3.463 3.781 6.522 0 3.058-2.33 5.475-3.782 6.523zM.062 25A.062.062 0 010 24.938V.062A.062.062 0 01.062 0h5.6a.062.062 0 01.057.037l7.183 16.495a.062.062 0 00.115 0L19.685.039A.062.062 0 0119.742 0H32.66c2.592 0 7.777 1.563 7.777 7.813 0 5.975-4.101 7.269-6.431 7.295a.03.03 0 00-.005.058l2.263.454a.062.062 0 01.04.029l5.631 9.258a.063.063 0 010 .062.061.061 0 01-.053.031h-5.556a.061.061 0 01-.054-.031l-5.149-9.312a.062.062 0 00-.054-.031h-6.122a.062.062 0 00-.062.062v9.25a.062.062 0 01-.062.062h-5.061a.062.062 0 01-.062-.062V4.49a.063.063 0 00-.05-.061.062.062 0 00-.07.038l-8.16 20.494a.063.063 0 01-.057.039H9.375a.062.062 0 01-.058-.04L1.675 4.487a.062.062 0 00-.069-.039.062.062 0 00-.05.061v20.428a.062.062 0 01-.062.062H.062z"/><path d="M51.945 18.539a7.104 7.104 0 01-3.078-.678c-.955-.452-1.743-1.139-2.363-2.06-.62-.92-.93-1.981-.93-3.183 0-1.71.579-3.134 1.736-4.276 1.157-1.141 2.62-1.712 4.388-1.712 1.525 0 2.76.457 3.704 1.373.944.915 1.438 2.194 1.482 3.837h-.675c-.066-1.412-.472-2.514-1.219-3.308-.746-.794-1.646-1.191-2.7-1.191-1.25 0-2.222.463-2.913 1.39-.69.926-1.037 2.172-1.037 3.737 0 1.632.373 2.925 1.12 3.879.746.954 1.75 1.431 3.013 1.432 1.031 0 1.912-.353 2.642-1.058.73-.706 1.172-1.754 1.326-3.143h.675c-.176 1.676-.733 2.922-1.671 3.738-.939.815-2.105 1.223-3.5 1.223zM65.365 18.373l-1.498-3.225h-4.528l-1.4 3.226h-.658l5.17-11.694h.215L68.1 18.374h-2.735zm-5.762-3.82h3.984l-2.041-4.433-1.943 4.433zM73.482 6.795c1.745 0 3.06.284 3.943.852.883.568 1.325 1.354 1.325 2.357 0 .992-.43 1.8-1.292 2.423-.861.623-2.187.934-3.976.934h-1.219v5.013h-2.486V6.795h3.705zm-.083 5.971c.889 0 1.564-.24 2.025-.72.462-.479.692-1.149.692-2.009 0-.838-.225-1.488-.675-1.951-.45-.464-1.13-.695-2.041-.695h-1.137v5.375H73.4zM80.512 18.373V6.795h2.484v11.578h-2.484zM94.935 6.795v.596h-3.787v10.982h-2.486V7.391h-3.787v-.596h10.06zM102.342 18.373l-1.498-3.225h-4.528l-1.4 3.226h-.658l5.17-11.694h.214l5.433 11.694h-2.733zm-5.763-3.82h3.985l-2.042-4.433-1.943 4.433zM109.242 17.777H114v.596h-7.244V6.795h2.486v10.982zM122 2h1v21h-1V2zM135.237 8.539c-.512 0-.973.088-1.384.266a2.818 2.818 0 00-1.041.762c-.284.33-.501.73-.654 1.2-.152.47-.228.998-.228 1.587 0 .778.12 1.455.362 2.03.245.572.609 1.014 1.091 1.327.487.314 1.094.47 1.822.47.415 0 .804-.034 1.168-.101.368-.072.726-.161 1.073-.267v.94c-.339.126-.694.22-1.067.279a7.996 7.996 0 01-1.326.095c-.944 0-1.733-.195-2.368-.584a3.66 3.66 0 01-1.422-1.663c-.313-.715-.47-1.56-.47-2.533 0-.702.098-1.343.292-1.923a4.35 4.35 0 01.864-1.51 3.823 3.823 0 011.396-.978c.555-.233 1.189-.35 1.905-.35.469 0 .922.047 1.358.14a5.04 5.04 0 011.181.4l-.432.914a6.418 6.418 0 00-.978-.35 4.096 4.096 0 00-1.142-.151zm6.665 1.39c.829 0 1.445.186 1.847.558.402.373.603.967.603 1.784V17h-.768l-.203-1.028h-.051a3.898 3.898 0 01-.609.64c-.212.17-.457.3-.737.388a3.492 3.492 0 01-1.015.127c-.423 0-.8-.074-1.13-.222a1.763 1.763 0 01-.775-.673c-.186-.3-.279-.681-.279-1.143 0-.694.275-1.227.825-1.6.55-.372 1.388-.575 2.514-.609l1.2-.05v-.426c0-.6-.129-1.022-.387-1.263-.259-.241-.623-.362-1.092-.362-.364 0-.711.053-1.041.159-.33.106-.644.23-.94.374l-.323-.8c.313-.16.672-.298 1.079-.412a4.71 4.71 0 011.282-.171zm1.409 3.643l-1.06.045c-.868.034-1.479.175-1.834.425-.356.25-.534.603-.534 1.06 0 .398.121.692.362.882.241.19.561.286.959.286.617 0 1.123-.171 1.517-.514.393-.343.59-.857.59-1.543v-.64zm6.481-3.656c.868 0 1.559.298 2.076.895.516.597.774 1.494.774 2.691 0 .792-.118 1.456-.355 1.994-.237.537-.572.943-1.003 1.218-.428.275-.933.413-1.517.413-.369 0-.692-.049-.972-.146a2.297 2.297 0 01-.717-.394 2.56 2.56 0 01-.495-.54h-.076l.044.598c.021.232.032.435.032.609v2.856h-1.06V10.043h.87l.139 1.028h.051c.135-.211.3-.404.495-.577.195-.178.432-.318.711-.42a2.87 2.87 0 011.003-.158zm-.184.889c-.483 0-.872.093-1.168.279-.292.186-.506.466-.641.838-.136.368-.208.831-.216 1.39v.203c0 .588.063 1.086.19 1.492.132.406.345.715.642.927.3.211.702.317 1.206.317.431 0 .791-.116 1.079-.35.287-.232.501-.556.641-.97.144-.42.216-.9.216-1.441 0-.821-.161-1.473-.483-1.955-.317-.487-.806-.73-1.466-.73zm5.929-.762V17h-1.054v-6.957h1.054zm-.515-2.603a.63.63 0 01.445.172c.127.11.19.283.19.52 0 .233-.063.407-.19.52a.63.63 0 01-.445.172.645.645 0 01-.457-.171c-.118-.114-.177-.288-.177-.52 0-.238.059-.411.177-.521a.645.645 0 01.457-.172zm4.996 8.824a3.3 3.3 0 00.978-.153v.82a2.249 2.249 0 01-.515.139 3.635 3.635 0 01-.634.057 2.55 2.55 0 01-1.003-.19 1.552 1.552 0 01-.724-.66c-.178-.31-.266-.737-.266-1.283v-4.126h-.991v-.514l.997-.413.419-1.51h.635v1.612h2.037v.825h-2.037v4.094c0 .436.099.762.298.978.203.216.472.324.806.324zm4.989-6.335c.83 0 1.445.186 1.847.558.403.373.604.967.604 1.784V17h-.769l-.203-1.028h-.05a3.86 3.86 0 01-.61.64 2.26 2.26 0 01-.736.388 3.499 3.499 0 01-1.016.127c-.423 0-.8-.074-1.13-.222a1.755 1.755 0 01-.774-.673c-.186-.3-.279-.681-.279-1.143 0-.694.275-1.227.825-1.6.55-.372 1.388-.575 2.513-.609l1.2-.05v-.426c0-.6-.129-1.022-.387-1.263-.258-.241-.622-.362-1.092-.362-.364 0-.711.053-1.041.159-.33.106-.643.23-.939.374l-.324-.8c.313-.16.673-.298 1.079-.412a4.714 4.714 0 011.282-.171zm1.41 3.643l-1.061.045c-.867.034-1.479.175-1.834.425s-.533.603-.533 1.06c0 .398.12.692.362.882.241.19.56.286.958.286.618 0 1.124-.171 1.517-.514.394-.343.591-.857.591-1.543v-.64zM170.688 17h-1.06V7.123h1.06V17zm3.435-1.51l.082.145a12.12 12.12 0 01-.292.99 17.12 17.12 0 01-.381 1.054 18.02 18.02 0 01-.412.997h-.787a34.143 34.143 0 00.488-2.177c.072-.369.129-.705.172-1.01h1.13zm5.693 1.51V7.72h1.08v8.315h4.119V17h-5.199zm6.792 0V7.72h1.08v8.315h4.119V17h-5.199zm10.76-8.461c-.512 0-.974.088-1.384.266a2.818 2.818 0 00-1.041.762c-.284.33-.502.73-.654 1.2-.152.47-.228.998-.228 1.587 0 .778.12 1.455.361 2.03.246.572.61 1.014 1.092 1.327.487.314 1.094.47 1.822.47.415 0 .804-.034 1.168-.101.368-.072.726-.161 1.073-.267v.94c-.339.126-.694.22-1.067.279a7.996 7.996 0 01-1.326.095c-.944 0-1.733-.195-2.368-.584a3.649 3.649 0 01-1.422-1.663c-.313-.715-.47-1.56-.47-2.533 0-.702.098-1.343.292-1.923a4.35 4.35 0 01.864-1.51c.38-.424.846-.75 1.396-.978.554-.233 1.189-.35 1.904-.35.47 0 .923.047 1.359.14.436.093.829.226 1.18.4l-.431.914a6.418 6.418 0 00-.978-.35 4.096 4.096 0 00-1.142-.151zm3.903 7.8c0-.295.072-.505.216-.628a.77.77 0 01.527-.19.81.81 0 01.546.19c.148.123.222.333.222.629 0 .292-.074.506-.222.641a.794.794 0 01-.546.197.755.755 0 01-.527-.197c-.144-.136-.216-.35-.216-.641z"/></g><defs><clipPath id="dclip0_512_944"><path fill="#fff" d="M0 0h203v25H0z"/></clipPath></defs></svg><svg fill="none" viewBox="0 0 203 25" id="logo-white" xmlns="http://www.w3.org/2000/svg"><g clip-path="url(#eclip0_532_574)" fill="#fff"><path fill-rule="evenodd" clip-rule="evenodd" d="M31.474 14.335a1.378 1.378 0 01-.812.249h-5.714a.062.062 0 01-.062-.063V1.104a.063.063 0 01.062-.062h5.715c.29-.005.574.082.812.249 1.452 1.048 3.781 3.463 3.781 6.522 0 3.058-2.33 5.475-3.782 6.523zM.062 25A.062.062 0 010 24.938V.062A.062.062 0 01.062 0h5.6a.062.062 0 01.057.037l7.183 16.495a.062.062 0 00.115 0L19.685.039A.062.062 0 0119.742 0H32.66c2.592 0 7.777 1.563 7.777 7.813 0 5.975-4.101 7.269-6.431 7.295a.03.03 0 00-.005.058l2.263.454a.062.062 0 01.04.029l5.631 9.258a.063.063 0 010 .062.061.061 0 01-.053.031h-5.556a.061.061 0 01-.054-.031l-5.149-9.312a.062.062 0 00-.054-.031h-6.122a.062.062 0 00-.062.062v9.25a.062.062 0 01-.062.062h-5.061a.062.062 0 01-.062-.062V4.49a.063.063 0 00-.05-.061.062.062 0 00-.07.038l-8.16 20.494a.063.063 0 01-.057.039H9.375a.062.062 0 01-.058-.04L1.675 4.487a.062.062 0 00-.069-.039.062.062 0 00-.05.061v20.428a.062.062 0 01-.062.062H.062z"/><path d="M51.945 18.539a7.104 7.104 0 01-3.078-.678c-.955-.452-1.743-1.139-2.363-2.06-.62-.92-.93-1.981-.93-3.183 0-1.71.579-3.134 1.736-4.276 1.157-1.141 2.62-1.712 4.388-1.712 1.525 0 2.76.457 3.704 1.373.944.915 1.438 2.194 1.482 3.837h-.675c-.066-1.412-.472-2.514-1.219-3.308-.746-.794-1.646-1.191-2.7-1.191-1.25 0-2.222.463-2.913 1.39-.69.926-1.037 2.172-1.037 3.737 0 1.632.373 2.925 1.12 3.879.746.954 1.75 1.431 3.013 1.432 1.031 0 1.912-.353 2.642-1.058.73-.706 1.172-1.754 1.326-3.143h.675c-.176 1.676-.733 2.922-1.671 3.738-.939.815-2.105 1.223-3.5 1.223zM65.365 18.373l-1.498-3.225h-4.528l-1.4 3.225h-.658l5.17-11.693h.215L68.1 18.373h-2.735zm-5.762-3.82h3.984l-2.041-4.433-1.943 4.432zM73.482 6.795c1.745 0 3.06.284 3.943.852.883.568 1.325 1.353 1.325 2.357 0 .992-.43 1.8-1.292 2.423-.861.623-2.187.934-3.976.934h-1.219v5.012h-2.486V6.795h3.705zm-.083 5.97c.889 0 1.564-.24 2.025-.719.462-.48.692-1.15.692-2.01 0-.837-.225-1.488-.675-1.95-.45-.464-1.13-.696-2.041-.696h-1.137v5.376H73.4zM80.512 18.373V6.795h2.484v11.578h-2.484zM94.935 6.795v.596h-3.787v10.982h-2.486V7.39h-3.787v-.595h10.06zM102.342 18.373l-1.498-3.225h-4.528l-1.4 3.225h-.658l5.17-11.693h.214l5.433 11.693h-2.733zm-5.763-3.82h3.985l-2.042-4.433-1.943 4.432zM109.242 17.776H114v.596h-7.244V6.795h2.486v10.981zM122 2h1v21h-1V2zM135.237 8.539c-.512 0-.973.088-1.384.266a2.818 2.818 0 00-1.041.762c-.284.33-.501.73-.654 1.2-.152.47-.228.998-.228 1.587 0 .778.12 1.455.362 2.03.245.572.609 1.014 1.091 1.327.487.314 1.094.47 1.822.47.415 0 .804-.034 1.168-.101.368-.072.726-.161 1.073-.267v.94c-.339.126-.694.22-1.067.279a7.996 7.996 0 01-1.326.095c-.944 0-1.733-.195-2.368-.584a3.66 3.66 0 01-1.422-1.663c-.313-.715-.47-1.56-.47-2.533 0-.702.098-1.343.292-1.923a4.35 4.35 0 01.864-1.51 3.823 3.823 0 011.396-.978c.555-.233 1.189-.35 1.905-.35.469 0 .922.047 1.358.14a5.04 5.04 0 011.181.4l-.432.914a6.418 6.418 0 00-.978-.35 4.096 4.096 0 00-1.142-.151zm6.665 1.39c.829 0 1.445.186 1.847.558.402.373.603.967.603 1.784V17h-.768l-.203-1.028h-.051a3.898 3.898 0 01-.609.64c-.212.17-.457.3-.737.388a3.492 3.492 0 01-1.015.127c-.423 0-.8-.074-1.13-.222a1.763 1.763 0 01-.775-.673c-.186-.3-.279-.681-.279-1.143 0-.694.275-1.227.825-1.6.55-.372 1.388-.575 2.514-.609l1.2-.05v-.426c0-.6-.129-1.022-.387-1.263-.259-.241-.623-.362-1.092-.362-.364 0-.711.053-1.041.159-.33.106-.644.23-.94.374l-.323-.8c.313-.16.672-.298 1.079-.412a4.71 4.71 0 011.282-.171zm1.409 3.643l-1.06.045c-.868.034-1.479.175-1.834.425-.356.25-.534.603-.534 1.06 0 .398.121.692.362.882.241.19.561.286.959.286.617 0 1.123-.171 1.517-.514.393-.343.59-.857.59-1.543v-.64zm6.481-3.656c.868 0 1.559.298 2.076.895.516.597.774 1.494.774 2.691 0 .792-.118 1.456-.355 1.994-.237.537-.572.943-1.003 1.218-.428.275-.933.413-1.517.413-.369 0-.692-.049-.972-.146a2.297 2.297 0 01-.717-.394 2.56 2.56 0 01-.495-.54h-.076l.044.598c.021.232.032.435.032.609v2.856h-1.06V10.043h.87l.139 1.028h.051c.135-.211.3-.404.495-.577.195-.178.432-.318.711-.42a2.87 2.87 0 011.003-.158zm-.184.889c-.483 0-.872.093-1.168.279-.292.186-.506.466-.641.838-.136.368-.208.831-.216 1.39v.203c0 .588.063 1.086.19 1.492.132.406.345.715.642.927.3.211.702.317 1.206.317.431 0 .791-.116 1.079-.35.287-.232.501-.556.641-.97.144-.42.216-.9.216-1.441 0-.821-.161-1.473-.483-1.955-.317-.487-.806-.73-1.466-.73zm5.929-.762V17h-1.054v-6.957h1.054zm-.515-2.603a.63.63 0 01.445.172c.127.11.19.283.19.52 0 .233-.063.407-.19.52a.63.63 0 01-.445.172.645.645 0 01-.457-.171c-.118-.114-.177-.288-.177-.52 0-.238.059-.411.177-.521a.645.645 0 01.457-.172zm4.996 8.824a3.3 3.3 0 00.978-.153v.82a2.249 2.249 0 01-.515.139 3.635 3.635 0 01-.634.057 2.55 2.55 0 01-1.003-.19 1.552 1.552 0 01-.724-.66c-.178-.31-.266-.737-.266-1.283v-4.126h-.991v-.514l.997-.413.419-1.51h.635v1.612h2.037v.825h-2.037v4.094c0 .436.099.762.298.978.203.216.472.324.806.324zm4.989-6.335c.83 0 1.445.186 1.847.558.403.373.604.967.604 1.784V17h-.769l-.203-1.028h-.05a3.86 3.86 0 01-.61.64 2.26 2.26 0 01-.736.388 3.499 3.499 0 01-1.016.127c-.423 0-.8-.074-1.13-.222a1.755 1.755 0 01-.774-.673c-.186-.3-.279-.681-.279-1.143 0-.694.275-1.227.825-1.6.55-.372 1.388-.575 2.513-.609l1.2-.05v-.426c0-.6-.129-1.022-.387-1.263-.258-.241-.622-.362-1.092-.362-.364 0-.711.053-1.041.159-.33.106-.643.23-.939.374l-.324-.8c.313-.16.673-.298 1.079-.412a4.714 4.714 0 011.282-.171zm1.41 3.643l-1.061.045c-.867.034-1.479.175-1.834.425s-.533.603-.533 1.06c0 .398.12.692.362.882.241.19.56.286.958.286.618 0 1.124-.171 1.517-.514.394-.343.591-.857.591-1.543v-.64zM170.688 17h-1.06V7.123h1.06V17zm3.435-1.51l.082.145a12.12 12.12 0 01-.292.99 17.12 17.12 0 01-.381 1.054 18.02 18.02 0 01-.412.997h-.787a34.143 34.143 0 00.488-2.177c.072-.369.129-.705.172-1.01h1.13zm5.693 1.51V7.72h1.08v8.315h4.119V17h-5.199zm6.792 0V7.72h1.08v8.315h4.119V17h-5.199zm10.76-8.461c-.512 0-.974.088-1.384.266a2.818 2.818 0 00-1.041.762c-.284.33-.502.73-.654 1.2-.152.47-.228.998-.228 1.587 0 .778.12 1.455.361 2.03.246.572.61 1.014 1.092 1.327.487.314 1.094.47 1.822.47.415 0 .804-.034 1.168-.101.368-.072.726-.161 1.073-.267v.94c-.339.126-.694.22-1.067.279a7.996 7.996 0 01-1.326.095c-.944 0-1.733-.195-2.368-.584a3.649 3.649 0 01-1.422-1.663c-.313-.715-.47-1.56-.47-2.533 0-.702.098-1.343.292-1.923a4.35 4.35 0 01.864-1.51c.38-.424.846-.75 1.396-.978.554-.233 1.189-.35 1.904-.35.47 0 .923.047 1.359.14.436.093.829.226 1.18.4l-.431.914a6.418 6.418 0 00-.978-.35 4.096 4.096 0 00-1.142-.151zm3.903 7.8c0-.295.072-.505.216-.628a.77.77 0 01.527-.19.81.81 0 01.546.19c.148.123.222.333.222.629 0 .292-.074.506-.222.641a.794.794 0 01-.546.197.755.755 0 01-.527-.197c-.144-.136-.216-.35-.216-.641z"/></g><defs><clipPath id="eclip0_532_574"><path fill="#fff" d="M0 0h203v25H0z"/></clipPath></defs></svg><svg fill="none" viewBox="0 0 6 10" id="sm-arrow" xmlns="http://www.w3.org/2000/svg"><path d="M5.749 4.412a.818.818 0 010 1.179L1.464 9.756a.876.876 0 01-1.213 0 .818.818 0 010-1.18L3.931 5 .254 1.423a.818.818 0 010-1.179.876.876 0 011.213 0l4.285 4.165-.003.003z" fill="#FF671F"/></svg><svg fill="none" viewBox="0 0 6 10" id="sm-arrow-menu" xmlns="http://www.w3.org/2000/svg"><g clip-path="url(#gclip0_830_1638)"><path d="M5.749 4.412a.818.818 0 010 1.179L1.464 9.756a.876.876 0 01-1.213 0 .818.818 0 010-1.18L3.931 5 .254 1.423a.818.818 0 010-1.179.876.876 0 011.213 0l4.285 4.165-.003.003z" fill="#293243"/></g><defs><clipPath id="gclip0_830_1638"><path fill="#fff" d="M0 0h6v10H0z"/></clipPath></defs></svg></svg>