<svg width="61" height="66" viewBox="0 0 61 66" fill="none" xmlns="http://www.w3.org/2000/svg">
<g clip-path="url(#clip0_1012_813)">
<path d="M16.5519 28.8008C14.9887 28.8008 13.4607 29.259 12.161 30.1176C10.8613 30.9762 9.84825 32.1965 9.25006 33.6243C8.65186 35.052 8.49535 36.6231 8.8003 38.1388C9.10526 39.6545 9.85799 41.0467 10.9633 42.1395C12.0686 43.2323 13.4769 43.9764 15.01 44.2779C16.5431 44.5794 18.1322 44.4247 19.5764 43.8333C21.0206 43.2419 22.2549 42.2404 23.1234 40.9554C23.9918 39.6705 24.4553 38.1598 24.4553 36.6144C24.4553 34.5421 23.6227 32.5547 22.1405 31.0893C20.6583 29.624 18.648 28.8008 16.5519 28.8008ZM16.5519 41.7008C15.5343 41.7008 14.5396 41.4025 13.6936 40.8436C12.8475 40.2847 12.1881 39.4903 11.7987 38.5609C11.4093 37.6315 11.3074 36.6088 11.5059 35.6221C11.7044 34.6355 12.1944 33.7292 12.9139 33.0178C13.6335 32.3065 14.5502 31.822 15.5482 31.6258C16.5462 31.4295 17.5806 31.5303 18.5207 31.9152C19.4608 32.3002 20.2643 32.9521 20.8297 33.7886C21.395 34.625 21.6967 35.6084 21.6967 36.6144C21.6931 37.961 21.1494 39.2513 20.185 40.2022C19.2205 41.1531 17.914 41.6872 16.5519 41.6871V41.7008Z" fill="white"/>
<path d="M32.7857 38.0323C31.8498 38.0066 30.9217 37.8552 30.0271 37.5823V38.3596C30.0271 43.896 26.6891 48.8187 24.2478 52.4187L23.7512 53.1414C21.3788 56.6596 18.234 60.6005 16.5374 62.5505C14.9098 60.6005 11.696 56.6596 9.32363 53.1414L8.85467 52.3641C6.41329 48.7641 3.06156 43.8414 3.06156 38.3051C3.06993 36.0121 3.67675 33.7601 4.82332 31.7669C5.96989 29.7738 7.61739 28.1069 9.60643 26.9276C11.5955 25.7483 13.8587 25.0964 16.1772 25.0351C18.4957 24.9739 20.7909 25.5052 22.8409 26.5778C22.9506 25.6402 23.192 24.7222 23.5581 23.8505C21.0812 22.6678 18.3405 22.1278 15.5942 22.2814C12.8479 22.435 10.1864 23.2772 7.86016 24.7285C5.53395 26.1798 3.61967 28.1926 2.29756 30.5773C0.975453 32.9621 0.289033 35.6402 0.302942 38.3596C0.302942 44.7278 3.91674 50.0596 6.56501 53.946L7.04777 54.6551C9.68264 58.4305 12.5092 62.0715 15.5167 65.5641L16.565 66.7778L17.6133 65.5641C20.6204 62.0712 23.447 58.4302 26.0823 54.6551L26.565 53.9323C29.1995 50.046 32.8133 44.7278 32.8133 38.3596C32.7995 38.2505 32.7857 38.1414 32.7857 38.0323Z" fill="white"/>
<path d="M33.1036 34.6364C36.9124 34.6364 40.0001 31.5838 40.0001 27.8182C40.0001 24.0526 36.9124 21 33.1036 21C29.2947 21 26.207 24.0526 26.207 27.8182C26.207 31.5838 29.2947 34.6364 33.1036 34.6364Z" fill="#FF7635"/>
</g>
<path d="M41.5 21C42.3284 21 43 20.3284 43 19.5C43 18.6716 42.3284 18 41.5 18C40.6716 18 40 18.6716 40 19.5C40 20.3284 40.6716 21 41.5 21Z" fill="white"/>
<path d="M44.5 18C45.3284 18 46 17.3284 46 16.5C46 15.6716 45.3284 15 44.5 15C43.6716 15 43 15.6716 43 16.5C43 17.3284 43.6716 18 44.5 18Z" fill="white"/>
<path d="M47.5 15C48.3284 15 49 14.3284 49 13.5C49 12.6716 48.3284 12 47.5 12C46.6716 12 46 12.6716 46 13.5C46 14.3284 46.6716 15 47.5 15Z" fill="white"/>
<path d="M50.5 12C51.3284 12 52 11.3284 52 10.5C52 9.67157 51.3284 9 50.5 9C49.6716 9 49 9.67157 49 10.5C49 11.3284 49.6716 12 50.5 12Z" fill="white"/>
<path d="M53.5 9C54.3284 9 55 8.32843 55 7.5C55 6.67157 54.3284 6 53.5 6C52.6716 6 52 6.67157 52 7.5C52 8.32843 52.6716 9 53.5 9Z" fill="white"/>
<path d="M56.5 6C57.3284 6 58 5.32843 58 4.5C58 3.67157 57.3284 3 56.5 3C55.6716 3 55 3.67157 55 4.5C55 5.32843 55.6716 6 56.5 6Z" fill="white"/>
<path d="M59.5 3C60.3284 3 61 2.32843 61 1.5C61 0.671573 60.3284 0 59.5 0C58.6716 0 58 0.671573 58 1.5C58 2.32843 58.6716 3 59.5 3Z" fill="white"/>
<defs>
<clipPath id="clip0_1012_813">
<rect width="40" height="45" transform="matrix(-1 0 0 1 40 21)" fill="white"/>
</clipPath>
</defs>
</svg>
